<svg width="1600" height="520" viewBox="0 0 1600 520" fill="none" xmlns="http://www.w3.org/2000/svg" role="img" aria-labelledby="title desc">
  <title id="title">Neuro Motor CPP repository banner</title>
  <desc id="desc">Banner for a C plus plus PPO reinforcement learning project with MuJoCo and a 3D neural viewer.</desc>
  <defs>
    <linearGradient id="bg" x1="80" y1="40" x2="1500" y2="500" gradientUnits="userSpaceOnUse">
      <stop stop-color="#071826"/>
      <stop offset="0.48" stop-color="#0F2740"/>
      <stop offset="1" stop-color="#09131F"/>
    </linearGradient>
    <linearGradient id="beam" x1="170" y1="148" x2="1435" y2="148" gradientUnits="userSpaceOnUse">
      <stop stop-color="#5FD4FF"/>
      <stop offset="0.55" stop-color="#73F2C2"/>
      <stop offset="1" stop-color="#F0C15B"/>
    </linearGradient>
    <linearGradient id="panel" x1="1100" y1="116" x2="1450" y2="410" gradientUnits="userSpaceOnUse">
      <stop stop-color="#11273B"/>
      <stop offset="1" stop-color="#09131E"/>
    </linearGradient>
    <filter id="glow" x="0" y="0" width="1600" height="520" filterUnits="userSpaceOnUse" color-interpolation-filters="sRGB">
      <feGaussianBlur stdDeviation="22"/>
    </filter>
  </defs>

  <rect width="1600" height="520" rx="28" fill="url(#bg)"/>
  <circle cx="219" cy="116" r="124" fill="#5FD4FF" opacity="0.10"/>
  <circle cx="1340" cy="412" r="160" fill="#73F2C2" opacity="0.10"/>
  <circle cx="1186" cy="92" r="116" fill="#F0C15B" opacity="0.08"/>

  <g opacity="0.40" filter="url(#glow)">
    <path d="M152 334C258 255 356 229 440 238C573 251 609 347 726 354C844 361 907 259 1027 232C1148 205 1266 244 1448 332" stroke="url(#beam)" stroke-width="7" stroke-linecap="round"/>
  </g>

  <rect x="1036" y="88" width="382" height="328" rx="28" fill="url(#panel)" stroke="rgba(255,255,255,0.10)"/>
  <rect x="1080" y="130" width="298" height="172" rx="18" fill="#08131D" stroke="rgba(255,255,255,0.08)"/>
  <path d="M1108 279C1148 225 1180 201 1216 201C1268 201 1287 262 1333 262C1364 262 1393 236 1418 207" stroke="#73F2C2" stroke-width="4" stroke-linecap="round"/>
  <path d="M1108 239C1157 181 1217 151 1280 151C1328 151 1369 167 1418 197" stroke="#5FD4FF" stroke-width="4" stroke-linecap="round"/>
  <circle cx="1216" cy="201" r="10" fill="#5FD4FF"/>
  <circle cx="1333" cy="262" r="10" fill="#73F2C2"/>
  <circle cx="1280" cy="151" r="10" fill="#F0C15B"/>
  <text x="1080" y="340" fill="#EAF4FF" font-family="DejaVu Sans, Arial, sans-serif" font-size="24" font-weight="700">Policy inspection viewer</text>
  <text x="1080" y="372" fill="#A9C4D8" font-family="DejaVu Sans, Arial, sans-serif" font-size="18">3D neural graph • live activations • static web export</text>

  <text x="88" y="132" fill="#7EE7C0" font-family="DejaVu Sans, Arial, sans-serif" font-size="22" font-weight="700" letter-spacing="2">C++20 • PPO • LIBTORCH • MUJOCO</text>
  <text x="88" y="214" fill="#F6FBFF" font-family="DejaVu Sans, Arial, sans-serif" font-size="56" font-weight="700">Neuro Motor CPP</text>
  <text x="88" y="268" fill="#D5E6F2" font-family="DejaVu Sans, Arial, sans-serif" font-size="28">High-performance reinforcement learning and neural policy visualization</text>
  <text x="88" y="322" fill="#A8C3D8" font-family="DejaVu Sans, Arial, sans-serif" font-size="24">Modern C++ PPO baseline with MuJoCo-ready control tasks, metric exports,</text>
  <text x="88" y="356" fill="#A8C3D8" font-family="DejaVu Sans, Arial, sans-serif" font-size="24">and a browser-facing 3D viewer for policy structure and activations.</text>

  <g>
    <rect x="88" y="404" width="214" height="48" rx="24" fill="#11283D" stroke="rgba(255,255,255,0.10)"/>
    <rect x="318" y="404" width="214" height="48" rx="24" fill="#11283D" stroke="rgba(255,255,255,0.10)"/>
    <rect x="548" y="404" width="236" height="48" rx="24" fill="#11283D" stroke="rgba(255,255,255,0.10)"/>
    <text x="130" y="435" fill="#E7F2FF" font-family="DejaVu Sans, Arial, sans-serif" font-size="20" font-weight="700">continuous control</text>
    <text x="372" y="435" fill="#E7F2FF" font-family="DejaVu Sans, Arial, sans-serif" font-size="20" font-weight="700">policy export</text>
    <text x="588" y="435" fill="#E7F2FF" font-family="DejaVu Sans, Arial, sans-serif" font-size="20" font-weight="700">public neural demo</text>
  </g>
</svg>
